<svg width="632" height="179" viewBox="0 0 632 179" fill="none" xmlns="http://www.w3.org/2000/svg">
<g clip-path="url(#clip0_2061_69)">
<path d="M256.549 1.67858H273.351V72.2405H256.549V18.9856C256.549 17.6443 255.875 16.2953 254.871 15.6285C254.196 15.1226 253.361 14.7853 252.349 14.7853C249.996 14.7853 248.149 16.6326 248.149 18.9856V101.643C248.149 103.996 249.996 105.843 252.349 105.843C254.702 105.843 256.549 103.996 256.549 101.643V83.1628H273.351V99.9639C273.351 111.553 267.303 120.965 252.349 120.965C237.395 120.965 231.348 111.553 231.348 99.9639V11.7578C231.348 5.20438 234.873 0 243.105 0C251.337 0 254.863 5.20438 254.863 12.095H256.542V1.67858H256.549Z" fill="#000E0A"></path>
<path d="M315.522 1.67847L325.602 119.279H308.8L308.295 109.2H297.541L297.035 119.279H280.234L290.321 1.67847H315.522ZM307.628 94.0849L303.765 16.8011H302.086L298.223 94.0849H307.628Z" fill="#000E0A"></path>
<path d="M374.488 92.4063C374.488 98.9597 369.284 104.164 362.056 104.164C356.177 104.164 350.965 100.638 350.965 92.4063V91.5632H349.287V119.287H332.485V1.67847H353.487C368.441 1.67847 374.488 11.0831 374.488 22.6799V92.3987V92.4063ZM349.287 84.8489C349.287 87.202 351.134 89.0492 353.487 89.0492C355.84 89.0492 357.687 87.202 357.687 84.8489V21.0014C357.687 18.6483 355.84 16.8011 353.487 16.8011H349.287V84.8412V84.8489Z" fill="#000E0A"></path>
<path d="M396.493 102.486C396.493 102.486 383.893 88.0374 383.893 67.2046V1.67847H400.694V67.2046C400.694 74.9307 402.71 82.8254 404.894 89.0415C407.079 82.8254 409.094 74.9307 409.094 67.2046V1.67847H425.896V67.2046C425.896 88.0374 413.295 102.486 413.295 102.486V119.287H396.493V102.486Z" fill="#000E0A"></path>
<path d="M464.871 68.2087C474.95 68.2087 478.146 73.2521 478.146 81.484V98.2852C478.146 109.874 475.456 119.287 460.502 119.287H435.3V1.67847H459.659C474.613 1.67847 477.303 11.0831 477.303 22.6799V54.6037C477.303 61.6629 473.103 66.5301 464.871 66.5301V68.2087ZM452.101 60.4826H456.302C458.655 60.4826 460.502 58.6354 460.502 56.2823V21.0014C460.502 18.6483 458.655 16.8011 456.302 16.8011H452.101V60.4826ZM452.101 104.164H457.145C459.498 104.164 461.345 102.317 461.345 99.9638V79.8055C461.345 77.4524 459.498 75.6052 457.145 75.6052H452.101V104.164Z" fill="#000E0A"></path>
<path d="M519.475 1.67847L529.554 119.279H512.753L512.247 109.2H501.493L500.987 119.279H484.186L494.265 1.67847H519.467H519.475ZM511.58 94.0849L507.717 16.8011H506.038L502.175 94.0849H511.58Z" fill="#000E0A"></path>
<path d="M536.437 1.67847H560.796C575.749 1.67847 578.432 11.0831 578.432 22.6799V74.762C578.432 84.1667 573.895 87.7002 562.643 87.7002V89.3788C569.863 89.3788 575.412 94.7518 576.754 101.642L580.111 119.287H563.31L559.952 99.9638C559.615 97.6107 558.105 95.7635 555.752 95.7635H553.23V119.287H536.429V1.67847H536.437ZM557.438 80.6409C559.791 80.6409 561.639 78.7937 561.639 76.4406V21.0014C561.639 18.6483 559.791 16.8011 557.438 16.8011H553.238V80.6409H557.438Z" fill="#000E0A"></path>
<path d="M620.611 1.67847L630.69 119.279H613.889L613.383 109.2H602.63L602.124 119.279H585.323L595.402 1.67847H620.604H620.611ZM612.717 94.0849L608.854 16.8011H607.175L603.312 94.0849H612.717Z" fill="#000E0A"></path>
<path d="M251.989 132.309C253.675 134.516 254.519 137.444 254.519 141.092V145.055H251.514V140.885C251.514 138.149 250.931 135.965 249.774 134.324C248.609 132.684 246.777 131.864 244.271 131.864C241.764 131.864 239.932 132.684 238.767 134.324C237.602 135.965 237.028 138.149 237.028 140.885V165.765C237.028 168.502 237.61 170.678 238.767 172.296C239.932 173.913 241.764 174.725 244.271 174.725C246.777 174.725 248.609 173.921 249.774 172.296C250.939 170.678 251.514 168.502 251.514 165.765V160.093H254.519V165.558C254.519 169.207 253.675 172.135 251.989 174.342C250.303 176.55 247.705 177.661 244.194 177.661C240.684 177.661 238.085 176.557 236.399 174.342C234.713 172.135 233.87 169.207 233.87 165.558V141.092C233.87 137.444 234.713 134.516 236.399 132.309C238.085 130.101 240.684 128.99 244.194 128.99C247.705 128.99 250.303 130.093 251.989 132.309Z" fill="#000E0A"></path>
<path d="M309.881 140.204V144.373C309.881 147.202 309.322 149.417 308.21 151.034C307.091 152.651 305.351 153.732 302.983 154.284C307.582 155.288 309.889 158.546 309.889 164.057V171.507C309.889 174.151 310.272 176.067 311.054 177.248H307.773C307.36 176.565 307.091 175.776 306.953 174.887C306.815 173.998 306.746 172.871 306.746 171.507V163.988C306.746 160.983 305.995 158.875 304.493 157.664C302.991 156.461 300.753 155.855 297.794 155.855H292.804V177.248H289.662V129.404H299.641C306.478 129.404 309.897 133.007 309.897 140.204H309.881ZM304.547 151.279C306.003 150.137 306.731 148.045 306.731 144.994V140.48C306.731 137.789 306.164 135.751 305.022 134.363C303.88 132.976 302.056 132.278 299.557 132.278H292.789V152.989H297.848C300.852 152.989 303.09 152.421 304.547 151.279Z" fill="#000E0A"></path>
<path d="M362.239 154.422H349.186V174.381H364.906V177.256H346.043V129.412H364.906V132.287H349.186V151.563H362.239V154.438V154.422Z" fill="#000E0A"></path>
<path d="M402.219 177.247H399.344L409.799 129.335H414.375L425.037 177.247H421.894L419.503 166.655H404.602L402.211 177.247H402.219ZM419.035 163.918L411.991 132.96L405.085 163.918H419.027H419.035Z" fill="#000E0A"></path>
<path d="M468.105 132.278H458.333V129.404H480.959V132.278H471.255V177.255H468.113V132.278H468.105Z" fill="#000E0A"></path>
<path d="M518.209 177.248H515.067V129.404H518.209V177.248Z" fill="#000E0A"></path>
<path d="M565.916 173.63L575.619 129.412H578.555L568.169 177.256H563.524L553 129.412H556.212L565.916 173.63Z" fill="#000E0A"></path>
<path d="M629.548 154.422H616.495V174.381H632.215V177.256H613.352V129.412H632.215V132.287H616.495V151.563H629.548V154.438V154.422Z" fill="#000E0A"></path>
</g>
<g clip-path="url(#clip1_2061_69)">
<path d="M174.427 38.177C175.79 39.4198 177.275 40.3211 178.951 40.3211C179 40.3211 179.05 40.3105 179.099 40.307C179.662 40.2894 180.208 40.1732 180.736 39.9655H180.747C182.905 39.0924 183.626 37.2018 183.788 35.5824C183.947 34.0051 183.616 32.4138 183.454 31.6006C181.951 24.1053 175.835 19.8278 170.347 17.4514C164.82 15.0574 159.556 14.4131 159.081 14.3638C158.31 14.2793 157.613 14.8356 157.525 15.6066L156.902 21.0318C156.86 21.412 156.972 21.7958 157.215 22.0915C157.458 22.3872 157.814 22.5703 158.197 22.602C158.19 22.602 161.897 23.0561 165.904 24.577C165.612 24.7812 165.4 25.084 165.327 25.4325C165.249 25.7987 165.316 26.1824 165.52 26.4993L165.538 26.5274C165.538 26.5274 165.541 26.5345 165.545 26.538C165.788 26.9147 167.756 29.9706 170.002 32.9842C171.607 35.1353 173.054 36.9237 174.431 38.1806L174.427 38.177Z" fill="#000E0A"></path>
<path d="M100.822 34.9524C100.572 34.6673 100.217 34.4983 99.8366 34.4771C99.4564 34.456 99.0867 34.5898 98.8086 34.8468C96.4146 37.0507 92.4293 38.4906 87.9441 39.42C83.5539 40.3284 78.9209 40.7051 75.3369 40.9374C75.1538 40.9339 74.9673 40.9621 74.7912 41.0325C74.2667 41.2402 73.9181 41.7331 73.897 42.2964L73.8301 44.2362C73.8019 44.9861 74.3688 45.6268 75.1186 45.6937C77.4915 45.9014 79.8186 45.9965 82.1704 46.0106H82.1774C86.9478 46.0176 91.7499 45.7676 96.573 44.5847C96.5836 44.5847 96.5942 44.5777 96.6047 44.5777C99.0128 43.9264 101.688 43.0779 104.248 41.0888C104.554 40.8494 104.751 40.4938 104.787 40.1066C104.822 39.7193 104.695 39.332 104.438 39.0398L100.826 34.9559L100.822 34.9524Z" fill="#000E0A"></path>
<path d="M148.068 24.0278L143.094 21.7852C142.735 21.6232 142.323 21.6197 141.96 21.7711C141.598 21.926 141.316 22.2217 141.182 22.5949L134.472 41.2856C134.222 41.9792 134.546 42.7432 135.215 43.0495L137.306 44C137.978 44.3063 138.771 44.0423 139.126 43.398L148.72 25.9993C148.91 25.6543 148.949 25.2459 148.822 24.8727C148.695 24.4995 148.424 24.1932 148.061 24.0313L148.068 24.0278Z" fill="#000E0A"></path>
<path d="M213.442 103.136C209.527 85.4376 205.841 67.6481 202.437 49.8375V49.8199C202.057 47.9821 201.669 45.8134 201.261 43.5462C200.581 39.751 199.849 35.6636 199.064 32.5338C193.244 9.4705 169.808 -4.09077 146.875 1.1056C146.857 1.10912 146.84 1.11265 146.819 1.11969C137.545 3.61578 128.283 6.15764 119.024 8.70302C97.5974 14.5894 76.1958 20.4688 54.6534 25.7215C52.6502 26.1686 50.661 26.6509 48.6825 27.1262H48.6789C42.3771 28.6436 36.2302 30.1222 29.9143 30.5905H29.9072C25.5839 30.9355 22.0493 30.5095 17.8316 29.7209C17.7964 29.7138 17.7612 29.7103 17.7225 29.7068C13.4274 29.2421 9.23085 29.8335 5.29836 30.3792C4.75619 30.4532 4.22107 30.5306 3.68594 30.601H3.67537L1.387 30.9284C0.721609 31.0235 0.214646 31.5762 0.175919 32.2487C-0.0670006 36.7515 -0.151495 41.374 0.654718 46.0599C0.654718 46.0599 0.654718 46.0599 0.654718 46.0634C0.654718 46.074 0.654718 46.081 0.658239 46.0916C2.24602 56.6357 9.00905 66.0885 20.2432 68.2712C20.2432 68.2712 20.2467 68.2712 20.2503 68.2712C20.6622 68.3522 21.0741 68.4261 21.486 68.493C15.2581 103.628 8.54786 141.598 3.05927 176.55C2.94662 177.018 3.07688 177.525 3.42893 177.877L3.43598 177.884C3.67185 178.12 3.98167 178.261 4.30556 178.289L6.5024 178.698C7.25228 178.839 7.98104 178.356 8.13947 177.606C9.48433 171.364 10.7693 165.112 12.0508 158.863C12.0508 158.863 12.0508 158.859 12.0508 158.856C12.6845 155.772 13.3182 152.688 13.959 149.604V149.597C19.2399 123.495 25.4431 91.5528 30.4353 65.402L31.0831 62.0539C31.1641 61.6314 31.0479 61.1949 30.7698 60.8674C30.4881 60.54 30.0762 60.3605 29.6432 60.3746L26.0592 60.5119L25.6579 60.5259C19.2645 60.4239 15.0821 57.794 12.4205 53.8861C9.9244 50.2212 8.70276 45.3276 8.4528 40.1066C14.6772 39.9341 21.0635 40.6628 26.0487 43.8525C27.7878 45.0002 29.1432 46.6232 29.9107 48.563C30.1818 49.2495 30.9387 49.6086 31.6429 49.3904L33.3257 48.8658C34.0545 48.637 34.4699 47.873 34.2657 47.1372C33.3398 43.8349 31.4668 41.2437 29.0764 39.2124C32.5969 39.0821 36.0577 38.6244 39.5606 37.9238L39.5782 37.9203C70.6579 31.3157 101.266 22.8628 131.81 14.424H131.814C133.919 13.8431 136.028 13.2622 138.133 12.6813L134.5 21.5919C134.211 22.296 134.535 23.0987 135.225 23.412L137.317 24.3555C137.989 24.6583 138.778 24.3942 139.133 23.75L146.519 10.3577C149.794 9.47754 153.145 8.90721 156.458 8.90721C156.469 8.90721 156.479 8.90721 156.486 8.90721C172.353 8.57275 186.703 19.3528 190.646 34.7623C190.646 34.7729 190.653 34.7835 190.657 34.794C191.153 36.5614 191.622 39.0786 192.033 41.3001C192.139 41.8774 192.245 42.4337 192.34 42.9407C194.955 56.604 197.768 70.2885 200.715 83.9167L183.162 90.0918C182.472 90.3347 182.081 91.0635 182.264 91.7746L182.683 93.4117C182.862 94.1193 183.552 94.5735 184.274 94.4538L202.377 91.5247C202.912 93.9503 203.451 96.3725 203.989 98.7947L183.978 105.265H183.975C160.373 112.983 136.799 120.816 113.359 129.068C112.641 129.322 112.25 130.1 112.482 130.828L113.211 133.127C113.444 133.853 114.207 134.264 114.94 134.06C119.083 132.895 123.248 131.705 127.42 130.505C127.262 131.828 127.082 133.303 126.903 134.803V134.831V134.852L126.896 134.909V134.947H126.892V134.955C126.568 137.63 126.241 140.355 126.001 142.379C125.882 143.393 125.783 144.231 125.716 144.805C125.685 145.09 125.66 145.312 125.646 145.46C125.639 145.527 125.632 145.597 125.628 145.65C125.628 145.664 125.628 145.689 125.625 145.713C125.625 145.728 125.625 145.749 125.625 145.777C125.625 145.794 125.625 145.858 125.635 145.939C125.639 145.974 125.653 146.073 125.688 146.196C125.709 146.259 125.776 146.414 125.825 146.502C125.913 146.632 126.199 146.914 126.406 147.041C126.424 147.048 126.441 147.051 126.459 147.055L169.829 168.537C170.512 168.875 171.336 168.611 171.699 167.942L172.786 165.925C173.149 165.256 172.913 164.418 172.255 164.035L134.412 141.964L136.06 127.998C160.767 120.781 185.788 113.067 210.101 105.526L212.481 104.787C213.182 104.568 213.6 103.85 213.442 103.132V103.136Z" fill="#000E0A"></path>
<path d="M146.713 36.3216C146.35 36.4765 146.069 36.7723 145.935 37.1454L139.225 55.8362C138.975 56.5262 139.299 57.2937 139.968 57.6L142.059 58.5506C142.731 58.8569 143.523 58.5928 143.879 57.9486L153.473 40.5498C153.663 40.2048 153.701 39.7964 153.575 39.4233C153.451 39.0501 153.177 38.7438 152.814 38.5818L147.84 36.3392C147.481 36.1773 147.069 36.1738 146.706 36.3252L146.713 36.3216Z" fill="#000E0A"></path>
</g>
<defs>
<clipPath id="clip0_2061_69">
<rect width="400.253" height="178.729" fill="white" transform="translate(231.469)"></rect>
</clipPath>
<clipPath id="clip1_2061_69">
<rect width="213.477" height="178.729" fill="white"></rect>
</clipPath>
</defs>
</svg>
